<svg xmlns="http://www.w3.org/2000/svg" width="35.844" height="35.844" viewBox="0 0 35.844 35.844">
  <defs>
    <style>
      .cls-1 {
        fill: #fff;
        fill-rule: evenodd;
      }
    </style>
  </defs>
  <path id="addEvent.svg" class="cls-1" d="M58.572,721.179a8.394,8.394,0,1,0,8.393,8.393A8.4,8.4,0,0,0,58.572,721.179Zm0,14.812a6.418,6.418,0,1,1,6.418-6.419A6.426,6.426,0,0,1,58.572,735.991Zm3.456-7.406H59.559v-2.469a0.987,0.987,0,1,0-1.975,0v2.469H55.116a0.988,0.988,0,0,0,0,1.975h2.469v2.468a0.987,0.987,0,1,0,1.975,0V730.56h2.469A0.988,0.988,0,0,0,62.028,728.585Zm-16.346,5.647H35.7a3.063,3.063,0,0,1-3.089-3.028V714.816H63.232v3.734a0.747,0.747,0,0,0,1.494,0v-8.931a4.438,4.438,0,0,0-4.461-4.511H58a0.747,0.747,0,1,0,0,1.493h2.26a2.961,2.961,0,0,1,2.967,3.018v3.7H32.614v-3.7A3.058,3.058,0,0,1,35.7,706.6h2.138a0.747,0.747,0,1,0,0-1.493H35.7a4.552,4.552,0,0,0-4.582,4.511V731.2a4.557,4.557,0,0,0,4.583,4.521h9.979A0.747,0.747,0,1,0,45.683,734.232ZM43.816,706.6H52.03a0.747,0.747,0,1,0,0-1.493H43.816A0.747,0.747,0,1,0,43.816,706.6Zm-2.987,2.987a0.747,0.747,0,0,0,.747-0.746v-5.975a0.747,0.747,0,0,0-1.494,0v5.975A0.747,0.747,0,0,0,40.829,709.588Zm14.189,0a0.747,0.747,0,0,0,.747-0.746v-5.975a0.747,0.747,0,0,0-1.493,0v5.975A0.746,0.746,0,0,0,55.017,709.588Z" transform="translate(-31.125 -702.125)"/>
</svg>
