<svg xmlns="http://www.w3.org/2000/svg" width="49" height="33.97" viewBox="0 0 49 33.97">
  <defs>
    <style>
      .cls-1 {
        fill: #fff;
        fill-rule: evenodd;
      }
    </style>
  </defs>
  <path id="addGuest.svg" class="cls-1" d="M71.493,1052a8.25,8.25,0,0,0-8.349,8.14,7.961,7.961,0,0,0,1.489,4.66,12.014,12.014,0,0,0-2.1,1.45,8.17,8.17,0,0,0-.78-0.5,5.877,5.877,0,0,0,.936-3.18,6.256,6.256,0,0,0-12.507,0,5.873,5.873,0,0,0,.936,3.18A8.335,8.335,0,0,0,47,1073.08v3.33a1.492,1.492,0,0,0,.693,1.04c4.2,2.89,7.33,3.37,11.052,2.72,0.006,0.01.011,0.01,0.017,0.02,10.654,8.35,20.956,4.12,25.516-.02a14.93,14.93,0,0,0,11.069-2.75,1.193,1.193,0,0,0,.658-1.18v-3.16a8.3,8.3,0,0,0-4.123-7.34,5.932,5.932,0,0,0,.936-3.17,6.247,6.247,0,0,0-12.49,0,5.933,5.933,0,0,0,.918,3.17,8.636,8.636,0,0,0-.779.49,12.026,12.026,0,0,0-2.1-1.43,7.963,7.963,0,0,0,1.507-4.66,8.268,8.268,0,0,0-8.384-8.14h0Zm0,2.17a6.04,6.04,0,0,1,6.167,5.97,6.215,6.215,0,0,1-6.167,5.99A5.982,5.982,0,1,1,71.493,1054.17Zm-15.053,4.47a3.917,3.917,0,1,1,0,7.83c-2.264-.14-4-1.51-4.036-3.9A3.962,3.962,0,0,1,56.44,1058.64Zm30.123,0a3.917,3.917,0,1,1,0,7.83,3.882,3.882,0,0,1-4.019-3.9A3.948,3.948,0,0,1,86.564,1058.64Zm-20.354,7.79a8.483,8.483,0,0,0,10.6.02,8.876,8.876,0,0,1,5.353,8.54v4.13c-7.19,4.81-14.052,4.82-21.324-.04v-4.09a8.882,8.882,0,0,1,5.37-8.56h0Zm-5.976.95a6.829,6.829,0,0,1,.762.48,11.366,11.366,0,0,0-2.373,7.13v2.99c-3.128.64-6.184-.05-9.406-2.14v-2.76a5.928,5.928,0,0,1,3.447-5.68A6.356,6.356,0,0,0,60.234,1067.38Zm22.554,0a6.27,6.27,0,0,0,3.776,1.26,6.343,6.343,0,0,0,3.777-1.26,5.956,5.956,0,0,1,3.447,5.7v2.74c-3.228,2.11-6.3,2.8-9.406,2.18v-3.01a11.393,11.393,0,0,0-2.373-7.15C82.255,1067.68,82.517,1067.52,82.788,1067.38ZM80,1066a11,11,0,1,1-11,11A11,11,0,0,1,80,1066Zm0-10H99v26H80v-26Zm-35-3H59v29H45v-29Zm12,2c3.314,0,6,3.36,6,7.5s-2.686,7.5-6,7.5-6-3.36-6-7.5S53.686,1055,57,1055Zm22.572,14.18a8.4,8.4,0,1,0,8.394,8.39A8.4,8.4,0,0,0,79.572,1069.18Zm0,14.81a6.42,6.42,0,1,1,6.419-6.42A6.427,6.427,0,0,1,79.572,1083.99Zm3.456-7.41H80.559v-2.46a0.987,0.987,0,1,0-1.975,0v2.46H76.116a0.99,0.99,0,0,0,0,1.98h2.469v2.47a0.987,0.987,0,1,0,1.975,0v-2.47h2.469A0.99,0.99,0,0,0,83.028,1076.58Z" transform="translate(-47 -1052)"/>
</svg>
