<svg xmlns="http://www.w3.org/2000/svg" width="26" height="28" viewBox="0 0 26 28">
  <defs>
    <style>
      .cls-1 {
        fill: #d9ab53;
        fill-rule: evenodd;
      }
    </style>
  </defs>
  <path id="events.svg" class="cls-1" d="M1324.86,218.759h-1.8a1.437,1.437,0,0,0-1.45,1.418v1.772a1.437,1.437,0,0,0,1.45,1.418h1.8a1.437,1.437,0,0,0,1.45-1.418v-1.772A1.437,1.437,0,0,0,1324.86,218.759Zm0,3.19h-1.8v-1.772h1.8v1.772Zm0,0.709v-0.709h0v0.709Zm6.86-3.9h-1.8a1.437,1.437,0,0,0-1.45,1.418v1.772a1.437,1.437,0,0,0,1.45,1.418h1.8a1.437,1.437,0,0,0,1.45-1.418v-1.772A1.437,1.437,0,0,0,1331.72,218.759Zm0,3.19h-1.8v-1.772h1.8v1.772Zm0,0.709v-0.709h0v0.709Zm6.86-3.9h-1.8a1.437,1.437,0,0,0-1.45,1.418v1.772a1.437,1.437,0,0,0,1.45,1.418h1.8a1.437,1.437,0,0,0,1.45-1.418v-1.772A1.437,1.437,0,0,0,1338.58,218.759Zm0,3.19h-1.8v-1.772h1.8v1.772Zm0,0.709v-0.709h0v0.709Zm-13.72,2.836h-1.8a1.437,1.437,0,0,0-1.45,1.417v1.773a1.437,1.437,0,0,0,1.45,1.417h1.8a1.437,1.437,0,0,0,1.45-1.417v-1.773A1.437,1.437,0,0,0,1324.86,225.494Zm0,3.19h-1.8v-1.773h1.8v1.773Zm0,0.708v-0.708h0v0.708Zm6.86-3.9h-1.8a1.437,1.437,0,0,0-1.45,1.417v1.773a1.437,1.437,0,0,0,1.45,1.417h1.8a1.437,1.437,0,0,0,1.45-1.417v-1.773A1.437,1.437,0,0,0,1331.72,225.494Zm0,3.19h-1.8v-1.773h1.8v1.773Zm0,0.708v-0.708h0v0.708Zm6.86-3.9h-1.8a1.437,1.437,0,0,0-1.45,1.417v1.773a1.437,1.437,0,0,0,1.45,1.417h1.8a1.437,1.437,0,0,0,1.45-1.417v-1.773A1.437,1.437,0,0,0,1338.58,225.494Zm0,3.19h-1.8v-1.773h1.8v1.773Zm0,0.708v-0.708h0v0.708ZM1324.5,206h-0.72a1.437,1.437,0,0,0-1.45,1.418v1.063h-1.55a2.754,2.754,0,0,0-2.78,2.729v20.061a2.758,2.758,0,0,0,2.78,2.729h20.44a2.754,2.754,0,0,0,2.78-2.729V211.21a2.758,2.758,0,0,0-2.78-2.729h-1.55v-1.063a1.437,1.437,0,0,0-1.45-1.418h-0.72a1.435,1.435,0,0,0-1.44,1.418v1.063h-10.12v-1.063A1.435,1.435,0,0,0,1324.5,206Zm0,4.962v0h0Zm-0.72-3.544h0.72v3.544h-0.72v-3.544Zm17.44,25.164h-20.44a1.349,1.349,0,0,1-1.34-1.311V216.633h23.12v14.638A1.349,1.349,0,0,1,1341.22,232.582Zm-3-21.62v0h0Zm-0.72-3.544h0.72v3.544h-0.72v-3.544Zm-1.44,2.481v1.063a1.435,1.435,0,0,0,1.44,1.418h0.72a1.437,1.437,0,0,0,1.45-1.418V209.9h1.55a1.349,1.349,0,0,1,1.34,1.311v4h-23.12v-4a1.349,1.349,0,0,1,1.34-1.311h1.55v1.063a1.437,1.437,0,0,0,1.45,1.418h0.72a1.435,1.435,0,0,0,1.44-1.418V209.9h10.12Z" transform="translate(-1318 -206)"/>
</svg>
