<svg xmlns="http://www.w3.org/2000/svg" width="22.188" height="20.938" viewBox="0 0 22.188 20.938">
  <defs>
    <style>
      .cls-1 {
        fill: #fff;
        fill-rule: evenodd;
      }
    </style>
  </defs>
  <path id="hallSide.svg" class="cls-1" d="M26.307,114.192v-2.185l-1.586-.633v-4.166H23.928a3.908,3.908,0,0,0-3.172-3.8V101H19.17v2.406a3.907,3.907,0,0,0-3.172,3.8H15.2v4.166l-1.586.633v2.185H8.861v7.76h22.2v-7.76H26.307Zm-6.344-9.312a2.354,2.354,0,0,1,2.379,2.328H17.584A2.354,2.354,0,0,1,19.963,104.88Zm-3.172,3.88h6.344v1.98l-3.172-1.266-3.172,1.267V108.76Zm3.172,2.39,4.758,1.9v0.366H15.2V113.05Zm0.793,3.818V120.4H19.17v-5.432h1.586ZM13.619,120.4H10.447v-4.656h3.172V120.4Zm1.586-5.432h2.379V120.4H15.2v-5.432Zm7.137,5.432v-5.432h2.379V120.4H22.342Zm7.137,0H26.307v-4.656h3.172V120.4Z" transform="translate(-8.875 -101)"/>
</svg>
