<svg xmlns="http://www.w3.org/2000/svg" width="32" height="31" viewBox="0 0 32 31">
  <defs>
    <style>
      .cls-1 {
        fill: #d9ab53;
        fill-rule: evenodd;
      }
    </style>
  </defs>
  <path id="halls.svg" class="cls-1" d="M1340.14,311.519v-3.233l-2.28-.936v-6.165h-1.15a5.738,5.738,0,0,0-4.57-5.626V292h-2.28v3.559a5.738,5.738,0,0,0-4.57,5.626h-1.15v6.165l-2.28.936v3.233H1315V323h32V311.519h-6.86ZM1331,297.741a3.44,3.44,0,0,1,3.43,3.444h-6.86A3.44,3.44,0,0,1,1331,297.741Zm-4.57,5.74h9.14v2.931l-4.57-1.874-4.57,1.875v-2.932Zm4.57,3.537,6.86,2.812v0.54h-13.72v-0.54Zm1.14,5.649V320.7h-2.28v-8.037h2.28Zm-10.28,8.037h-4.57v-6.889h4.57V320.7Zm2.28-8.037h3.43V320.7h-3.43v-8.037Zm10.29,8.037v-8.037h3.43V320.7h-3.43Zm10.28,0h-4.57v-6.889h4.57V320.7Z" transform="translate(-1315 -292)"/>
</svg>
