<svg xmlns="http://www.w3.org/2000/svg" width="26" height="28" viewBox="0 0 26 28">
  <defs>
    <style>
      .cls-1 {
        fill: #d9ab53;
        fill-rule: evenodd;
      }
    </style>
  </defs>
  <path id="home.svg" class="cls-1" d="M1328.5,134.964v-8.491a0.159,0.159,0,0,1,.17-0.164h4.66a0.159,0.159,0,0,1,.17.164v8.491h7.97a2.511,2.511,0,0,0,2.53-2.45V118.732a3.292,3.292,0,0,0-.98-2.286l-10.13-8.72a2.836,2.836,0,0,0-3.81,0l-10.07,8.72-0.03.033a3.113,3.113,0,0,0-.98,2.286v13.782a2.511,2.511,0,0,0,2.53,2.45h7.97v-0.033Zm-8.14-2.45V118.732a0.872,0.872,0,0,1,.27-0.62l10.07-8.687,0.03-.033a0.419,0.419,0,0,1,.54,0l10.1,8.72a0.872,0.872,0,0,1,.27.62v13.782a0.159,0.159,0,0,1-.17.164h-5.61v-6.2a2.511,2.511,0,0,0-2.53-2.45h-4.66a2.511,2.511,0,0,0-2.53,2.45v6.2h-5.61A0.159,0.159,0,0,1,1320.36,132.514Z" transform="translate(-1318 -107)"/>
</svg>
