<svg xmlns="http://www.w3.org/2000/svg" width="38" height="26" viewBox="0 0 38 26">
  <defs>
    <style>
      .cls-1 {
        fill: #d9ab53;
        fill-rule: evenodd;
      }
    </style>
  </defs>
  <path id="members.svg" class="cls-1" d="M1331,393a6.449,6.449,0,0,0-6.48,6.417,6.3,6.3,0,0,0,1.16,3.67,9.221,9.221,0,0,0-1.63,1.139c-0.19-.145-0.4-0.264-0.6-0.388a4.762,4.762,0,0,0,.72-2.506,4.85,4.85,0,0,0-9.7,0,4.682,4.682,0,0,0,.73,2.506,6.571,6.571,0,0,0-3.2,5.774v2.625a1.174,1.174,0,0,0,.54.817c3.25,2.28,5.68,2.656,8.57,2.144a0.147,0.147,0,0,0,.01.013c8.26,6.584,16.25,3.249,19.79-.013a11.425,11.425,0,0,0,8.58-2.17,0.924,0.924,0,0,0,.51-0.925V409.61a6.589,6.589,0,0,0-3.19-5.788,4.716,4.716,0,0,0,.72-2.492,4.84,4.84,0,0,0-9.68,0,4.708,4.708,0,0,0,.71,2.492c-0.21.121-.41,0.246-0.61,0.389a9.506,9.506,0,0,0-1.62-1.126,6.384,6.384,0,0,0,1.17-3.67A6.466,6.466,0,0,0,1331,393h0Zm0,1.714a4.714,4.714,0,0,1,4.78,4.7,4.857,4.857,0,0,1-4.78,4.715A4.709,4.709,0,1,1,1331,394.712Zm-11.68,3.524a3.081,3.081,0,1,1,0,6.162,3.055,3.055,0,0,1-3.13-3.068A3.093,3.093,0,0,1,1319.32,398.236Zm23.36,0a3.081,3.081,0,1,1,0,6.162,3.028,3.028,0,0,1-3.11-3.068A3.076,3.076,0,0,1,1342.68,398.236Zm-15.78,6.135a6.459,6.459,0,0,0,4.1,1.474,6.546,6.546,0,0,0,4.12-1.46,7,7,0,0,1,4.15,6.725v3.255c-5.58,3.792-10.9,3.8-16.54-.026V411.11a7,7,0,0,1,4.17-6.738h0Zm-4.64.751a5.264,5.264,0,0,1,.59.375,9.085,9.085,0,0,0-1.84,5.613v2.358a9.323,9.323,0,0,1-7.29-1.688v-2.17a4.679,4.679,0,0,1,2.67-4.475A4.867,4.867,0,0,0,1322.26,405.122Zm17.49,0a4.827,4.827,0,0,0,5.86,0,4.682,4.682,0,0,1,2.67,4.488v2.156a9.35,9.35,0,0,1-7.29,1.715V411.11a9.065,9.065,0,0,0-1.84-5.627A5.61,5.61,0,0,1,1339.75,405.122Z" transform="translate(-1312 -393)"/>
</svg>
