<svg xmlns="http://www.w3.org/2000/svg" width="25" height="17.281" viewBox="0 0 25 17.281">
  <defs>
    <style>
      .cls-1 {
        fill: #fff;
        fill-rule: evenodd;
      }
    </style>
  </defs>
  <path id="memebersSide.svg" class="cls-1" d="M19.5,137.7a4.276,4.276,0,0,0-3.5,6.71,6.1,6.1,0,0,0-1.069.757,4.678,4.678,0,0,0-.4-0.258,3.152,3.152,0,0,0,.477-1.667,3.191,3.191,0,1,0-6.381,0,3.151,3.151,0,0,0,.477,1.667A4.387,4.387,0,0,0,7,148.754V150.5a0.779,0.779,0,0,0,.354.544,6.76,6.76,0,0,0,5.639,1.426L13,152.478c5.436,4.38,10.692,2.161,13.018-.008a7.463,7.463,0,0,0,5.648-1.444A0.624,0.624,0,0,0,32,150.411v-1.657a4.384,4.384,0,0,0-2.1-3.85,3.146,3.146,0,0,0,.477-1.657,3.186,3.186,0,1,0-6.372,0,3.145,3.145,0,0,0,.468,1.657,4.557,4.557,0,0,0-.4.258,6.208,6.208,0,0,0-1.069-.748A4.267,4.267,0,0,0,19.5,137.7h0Zm0,1.14a3.119,3.119,0,0,1,3.146,3.128,3.21,3.21,0,0,1-3.146,3.137A3.133,3.133,0,0,1,19.5,138.844Zm-7.68,2.344a2.05,2.05,0,1,1,0,4.1,2.017,2.017,0,0,1-2.059-2.041A2.047,2.047,0,0,1,11.817,141.188Zm15.369,0a2.05,2.05,0,1,1,0,4.1,2.007,2.007,0,0,1-2.05-2.041A2.039,2.039,0,0,1,27.186,141.188ZM16.8,145.269a4.224,4.224,0,0,0,2.7.981,4.273,4.273,0,0,0,2.713-.972,4.662,4.662,0,0,1,2.731,4.474v2.165c-3.668,2.522-7.169,2.527-10.879-.018v-2.147a4.663,4.663,0,0,1,2.74-4.483h0Zm-3.049.5a3.462,3.462,0,0,1,.389.25,6.062,6.062,0,0,0-1.211,3.734v1.568a6.084,6.084,0,0,1-4.8-1.123v-1.443a3.114,3.114,0,0,1,1.759-2.977A3.172,3.172,0,0,0,13.752,145.768Zm11.507,0a3.142,3.142,0,0,0,3.853,0,3.122,3.122,0,0,1,1.759,2.986v1.434a6.11,6.11,0,0,1-4.8,1.141v-1.577a6.059,6.059,0,0,0-1.211-3.743A3.956,3.956,0,0,1,25.259,145.768Z" transform="translate(-7 -137.719)"/>
</svg>
