<svg xmlns="http://www.w3.org/2000/svg" width="28" height="33" viewBox="0 0 28 33">
  <defs>
    <style>
      .cls-1 {
        fill: #d9ab53;
        fill-rule: evenodd;
      }
    </style>
  </defs>
  <path id="reports.svg" class="cls-1" d="M1341.8,524.867v0.8a0.4,0.4,0,0,1-.4.4h-20.8a0.4,0.4,0,0,1-.4-0.4v-0.8a0.4,0.4,0,0,1,.4-0.4h20.8A0.4,0.4,0,0,1,1341.8,524.867Zm0,3.181v0.795a0.4,0.4,0,0,1-.4.4h-20.8a0.4,0.4,0,0,1-.4-0.4v-0.795a0.4,0.4,0,0,1,.4-0.4h20.8A0.4,0.4,0,0,1,1341.8,528.048Zm0,3.181v0.795a0.4,0.4,0,0,1-.4.4h-20.8a0.4,0.4,0,0,1-.4-0.4v-0.795a0.4,0.4,0,0,1,.4-0.4h20.8A0.4,0.4,0,0,1,1341.8,531.229Zm-8-19.124v-5.722a0.2,0.2,0,0,1,.25-0.2,7.162,7.162,0,0,1,5.27,5.888,0.2,0.2,0,0,1-.2.229H1334A0.2,0.2,0,0,1,1333.8,512.105Zm-9.95,3a7.163,7.163,0,0,1,6.94-7.97,0.2,0.2,0,0,1,.21.2v7.548a0.2,0.2,0,0,0,.2.2h6.72a0.2,0.2,0,0,1,.2.227A7.2,7.2,0,0,1,1323.85,515.108ZM1343.4,503h-24.8a1.6,1.6,0,0,0-1.6,1.59v29.82a1.6,1.6,0,0,0,1.6,1.59h24.8a1.6,1.6,0,0,0,1.6-1.59V504.59A1.6,1.6,0,0,0,1343.4,503Zm0,31.41h-24.8V504.59h24.8v29.82Z" transform="translate(-1317 -503)"/>
</svg>
