<svg xmlns="http://www.w3.org/2000/svg" width="26.75" height="18.375" viewBox="0 0 26.75 18.375">
  <defs>
    <style>
      .cls-1 {
        fill: #00b75b;
        fill-rule: evenodd;
      }
    </style>
  </defs>
  <path id="step-3.svg" class="cls-1" d="M5017.18,520.9a4.548,4.548,0,0,0-4.56,4.533,4.479,4.479,0,0,0,.82,2.593,6.75,6.75,0,0,0-1.15.8,4.89,4.89,0,0,0-.42-0.275,3.342,3.342,0,0,0,.51-1.769,3.415,3.415,0,0,0-6.83,0,3.342,3.342,0,0,0,.51,1.769,4.655,4.655,0,0,0-2.25,4.079v1.855a0.794,0.794,0,0,0,.38.577,7.265,7.265,0,0,0,6.03,1.514,0.094,0.094,0,0,0,.01.01c5.82,4.65,11.44,2.294,13.93-.01a8.019,8.019,0,0,0,6.04-1.533,0.641,0.641,0,0,0,.36-0.653v-1.76a4.635,4.635,0,0,0-2.25-4.088,3.314,3.314,0,0,0,.51-1.76,3.41,3.41,0,0,0-6.82,0,3.314,3.314,0,0,0,.51,1.76,4.6,4.6,0,0,0-.43.274,6.672,6.672,0,0,0-1.14-.794,4.528,4.528,0,0,0-3.76-7.126h0Zm0,1.211a3.324,3.324,0,0,1,3.37,3.322,3.429,3.429,0,0,1-3.37,3.331A3.327,3.327,0,1,1,5017.18,522.107Zm-8.22,2.489a2.177,2.177,0,1,1,0,4.353,2.151,2.151,0,0,1-2.2-2.167A2.182,2.182,0,0,1,5008.96,524.6Zm16.45,0a2.177,2.177,0,1,1,0,4.353,2.128,2.128,0,0,1-2.19-2.167A2.167,2.167,0,0,1,5025.41,524.6Zm-11.11,4.334a4.547,4.547,0,0,0,5.78.009,4.94,4.94,0,0,1,2.93,4.751v2.3c-3.93,2.679-7.67,2.683-11.64-.018V533.69a4.949,4.949,0,0,1,2.93-4.76h0Zm-3.27.53a3.286,3.286,0,0,1,.42.265,6.427,6.427,0,0,0-1.3,3.965v1.665a6.539,6.539,0,0,1-5.13-1.192V532.63a3.3,3.3,0,0,1,1.88-3.161,3.429,3.429,0,0,0,2.06.691A3.39,3.39,0,0,0,5011.03,529.46Zm12.32,0a3.367,3.367,0,0,0,2.06.7,3.408,3.408,0,0,0,2.06-.7,3.307,3.307,0,0,1,1.88,3.17v1.524a6.567,6.567,0,0,1-5.13,1.211V533.69a6.393,6.393,0,0,0-1.3-3.975A4.631,4.631,0,0,1,5023.35,529.46Z" transform="translate(-5003.81 -520.906)"/>
</svg>
