<svg xmlns="http://www.w3.org/2000/svg" width="22.53" height="21.875" viewBox="0 0 22.53 21.875">
  <defs>
    <style>
      .cls-1 {
        fill: #00b75b;
        fill-rule: evenodd;
      }
    </style>
  </defs>
  <path id="step-2.svg" class="cls-1" d="M3835.75,533.272v-2.283l-1.61-.662v-4.354h-0.8a4.055,4.055,0,0,0-3.22-3.974v-2.514h-1.61V522a4.055,4.055,0,0,0-3.22,3.974h-0.8v4.354l-1.61.662v2.283h-4.83v8.11h22.53v-8.11h-4.83Zm-6.43-9.732a2.422,2.422,0,0,1,2.41,2.433h-4.83A2.424,2.424,0,0,1,3829.32,523.54Zm-3.22,4.055h6.43v2.07l-3.21-1.324-3.22,1.325V527.6Zm3.22,2.5,4.82,1.986v0.382h-9.65v-0.382Zm0.8,3.99v5.677h-1.61v-5.677h1.61Zm-7.24,5.677h-3.22v-4.866h3.22v4.866Zm1.61-5.677h2.41v5.677h-2.41v-5.677Zm7.24,5.677v-5.677h2.41v5.677h-2.41Zm7.24,0h-3.22v-4.866h3.22v4.866Z" transform="translate(-3818.06 -519.5)"/>
</svg>
