<svg xmlns="http://www.w3.org/2000/svg" width="20.41" height="21.188" viewBox="0 0 20.41 21.188">
  <defs>
    <style>
      .cls-1 {
        fill: #00b75b;
        fill-rule: evenodd;
      }
    </style>
  </defs>
  <path id="step-4.svg" class="cls-1" d="M6225.57,540.682h-19.3a0.556,0.556,0,0,1-.56-0.552V528.008a0.54,0.54,0,0,1,.2-0.424l2.89-2.389a0.476,0.476,0,0,1,.13-0.079v-3.171a0.555,0.555,0,0,1,.56-0.552h3.93a0.615,0.615,0,0,1,.1-0.1l2.04-1.689a0.561,0.561,0,0,1,.71,0l1.8,1.473a0.531,0.531,0,0,1,.19.315h4.09a0.555,0.555,0,0,1,.56.552v3.21a0.559,0.559,0,0,1,.21.11l2.81,2.319a0.573,0.573,0,0,1,.2.424V540.13A0.556,0.556,0,0,1,6225.57,540.682Zm-18.75-1.105h18.19V528.82l-9.01,4.467a0.551,0.551,0,0,1-.5,0l-8.68-4.451v10.744Zm3.22-10.336,5.72,2.933,6.03-2.993V522.5h-11.75v6.744Zm-2.71-1.392,1.6,0.821v-2.142Zm15.58-1.322v2.1l1.59-.788Zm-7.77-5.134h1.57l-0.79-.645Zm2.26,8.172h-5.5a0.552,0.552,0,1,1,0-1.1h5.5A0.552,0.552,0,1,1,6217.4,529.565Zm-1-2.282h-4.49a0.552,0.552,0,1,1,0-1.1h4.49A0.552,0.552,0,1,1,6216.4,527.283Zm3.23-2.283h-7.73a0.552,0.552,0,1,1,0-1.1h7.73A0.552,0.552,0,1,1,6219.63,525Z" transform="translate(-6205.72 -519.5)"/>
</svg>
